<svg width="200" height="200" viewBox="0 0 200 200" fill="none" xmlns="http://www.w3.org/2000/svg">
<path d="M136.21 98.4895C131.376 103.679 121.945 103.177 115.739 97.8086C109.519 92.4309 108.279 84.7414 112.454 80.2468C114.646 78.0507 126.702 67.0866 135.928 54.528C145.672 42.3705 152.587 28.6181 156.446 30.1118C160.211 31.3853 160.223 48.8186 154.518 64.8807C149.475 81.2035 138.715 96.1555 136.21 98.4895Z" fill="#1F5355"/>
<path d="M124.841 75.5714C129.679 73.9741 154.906 62.1588 155.532 61.8193C155.217 62.842 154.879 63.8639 154.518 64.8803C149.475 81.2034 138.715 96.155 136.21 98.4886C131.376 103.678 121.945 103.176 115.739 97.8078C113.397 95.7828 111.761 93.4296 110.854 91.0433C111.092 89.8847 111.504 79.9749 124.841 75.5714Z" fill="#23696C"/>
<path d="M140.735 112.174C134.209 114.953 125.796 110.663 122.305 103.238C118.804 95.7973 120.795 88.2664 126.435 85.8551C129.33 84.7391 144.799 79.616 158.331 71.8863C172.173 64.7339 184.077 54.9753 186.997 57.9077C189.92 60.6007 182.85 76.5359 171.114 88.8969C159.876 101.765 143.971 111.058 140.735 112.174Z" fill="#277F82"/>
<path d="M169.138 75.6579C168.411 77.7169 167.591 79.7838 166.673 81.8195C160.303 97.6716 148.348 111.687 145.66 113.807C140.415 118.581 131.058 117.304 125.315 111.443C119.558 105.572 118.956 97.8055 123.486 93.6703C123.936 93.2885 166.739 76.8203 169.138 75.6579Z" fill="#2F989C"/>
<path d="M135.564 124.491C128.473 124.382 122.524 117.047 122.347 108.844C122.167 100.623 127.044 94.5486 133.177 94.6342C136.276 94.7893 152.493 96.3857 167.997 94.8139C183.55 93.8951 198.39 89.808 199.869 93.6736C201.448 97.3213 188.518 109.016 172.775 115.549C157.283 122.747 138.975 124.785 135.564 124.491Z" fill="#36B1B5"/>
<path d="M63.7905 98.4895C68.6245 103.679 78.0554 103.177 84.2613 97.8086C90.482 92.4309 91.7219 84.7414 87.5465 80.2468C85.3543 78.0507 73.2991 67.0866 64.0725 54.528C54.3287 42.3705 47.4139 28.6181 43.5545 30.1118C39.7892 31.3853 39.7779 48.8186 45.4826 64.8807C50.526 81.2035 61.2858 96.1555 63.7905 98.4895Z" fill="#1F5355"/>
<path d="M75.1603 75.5714C70.3224 73.9741 45.0953 62.1588 44.4688 61.8193C44.7844 62.842 45.1223 63.8639 45.4832 64.8803C50.5266 81.2034 61.286 96.155 63.7911 98.4886C68.6251 103.678 78.056 103.176 84.2619 97.8078C86.6045 95.7828 88.24 93.4296 89.1467 91.0433C88.9088 89.8847 88.4975 79.9749 75.1603 75.5714Z" fill="#23696C"/>
<path d="M59.2667 112.174C65.7917 114.953 74.2054 110.663 77.6964 103.238C81.1972 95.7973 79.2066 88.2664 73.5663 85.8551C70.6714 84.7391 55.2022 79.616 41.6701 71.8863C27.8283 64.7339 15.9239 54.9753 13.0044 57.9077C10.0809 60.6007 17.1509 76.5359 28.8872 88.8969C40.1252 101.765 56.0303 111.058 59.2667 112.174Z" fill="#277F82"/>
<path d="M30.3975 75.6582C31.1249 77.7172 31.9447 79.784 32.8626 81.8198C39.2328 97.6718 51.1872 111.688 53.8758 113.807C59.1205 118.581 68.4778 117.303 74.2208 111.443C79.9778 105.572 80.5799 97.8054 76.0492 93.6702C75.5991 93.2884 32.7961 76.8205 30.3975 75.6582Z" fill="#2F989C"/>
<path d="M64.4366 124.491C71.5276 124.382 77.4765 117.047 77.6534 108.844C77.8331 100.623 72.9569 94.5487 66.8237 94.6342C63.7249 94.7893 47.5076 96.3858 32.0036 94.8139C16.45 93.8948 1.60934 89.8081 0.130822 93.6737C-1.44809 97.3214 11.4813 109.016 27.2243 115.549C42.7177 122.747 61.026 124.786 64.4366 124.491Z" fill="#36B1B5"/>
<path d="M149.877 114.633C149.877 142.179 127.547 145.828 100.001 145.828C72.4551 145.828 50.1245 142.179 50.1245 114.633C50.1245 87.0874 72.4543 61.2314 100.001 61.2314C127.547 61.2314 149.877 87.0874 149.877 114.633Z" fill="url(#paint0_linear)"/>
<path d="M90.4611 74.6502C86.1991 76.1193 82.4637 78.3995 79.3581 81.427C78.1475 82.6071 76.2094 82.5827 75.029 81.3718C73.8486 80.1609 73.8736 78.2229 75.0842 77.0428C78.8413 73.3802 83.3432 70.6278 88.4648 68.8613C90.0632 68.3102 91.8081 69.1584 92.3565 70.7573C93.0957 72.909 90.9022 74.4978 90.4611 74.6502Z" fill="#AAF9FC"/>
<path d="M68.9798 108.278C72.0944 108.278 74.6193 105.753 74.6193 102.639C74.6193 99.5239 72.0944 96.999 68.9798 96.999C65.8652 96.999 63.3403 99.5239 63.3403 102.639C63.3403 105.753 65.8652 108.278 68.9798 108.278Z" fill="#121212"/>
<path d="M131.723 108.278C134.838 108.278 137.362 105.753 137.362 102.639C137.362 99.5239 134.838 96.999 131.723 96.999C128.608 96.999 126.083 99.5239 126.083 102.639C126.083 105.753 128.608 108.278 131.723 108.278Z" fill="#121212"/>
<path d="M99.448 125.723C103.285 125.723 106.838 125.169 110.105 124.06C113.373 122.95 116.4 121.317 119.188 119.158L121.212 122.126C118.364 124.464 115.081 126.338 111.364 127.747C107.677 129.186 103.705 129.905 99.448 129.905C95.1911 129.905 91.2041 129.186 87.4868 127.747C83.7995 126.338 80.5319 124.464 77.684 122.126L79.7075 119.158C82.4955 121.317 85.5233 122.95 88.7908 124.06C92.0584 125.169 95.6108 125.723 99.448 125.723Z" fill="#121212"/>
<defs>
<linearGradient id="paint0_linear" x1="100.001" y1="61.2314" x2="100.001" y2="145.828" gradientUnits="userSpaceOnUse">
<stop stop-color="#70D0D3"/>
<stop offset="1" stop-color="#057B80"/>
</linearGradient>
</defs>
</svg>
