<svg xmlns="http://www.w3.org/2000/svg" xmlns:xlink="http://www.w3.org/1999/xlink" width="200" height="200" viewBox="0 0 200 200">
  <defs>
    <clipPath id="clip-Section-2">
      <rect width="200" height="200"/>
    </clipPath>
  </defs>
  <g id="Section-2" clip-path="url(#clip-Section-2)">
    <rect width="200" height="200" fill="rgba(18,18,18,0)"/>
    <path id="Subtraction_2" data-name="Subtraction 2" d="M-248.376-38.515H-421V-222h53.786a31.523,31.523,0,0,0,1.616,4.477,35.566,35.566,0,0,0,6.617,9.832,36.269,36.269,0,0,0,7.9,6.25,20.29,20.29,0,0,0,6.617,2.664v1.1a19.233,19.233,0,0,0-6.432,2.85,36.146,36.146,0,0,0-7.9,6.8,44.1,44.1,0,0,0-6.7,10.2,29.836,29.836,0,0,0-2.849,13.049v17.644c0,7.44-1.61,13.006-4.786,16.543s-8.556,5.331-15.991,5.331H-409.15v12.866H-382.5l.436,0a33.414,33.414,0,0,0,11.168-1.916,25.4,25.4,0,0,0,9.076-5.721,24.118,24.118,0,0,0,5.858-9.442,39.9,39.9,0,0,0,1.953-13.073v-18.011a32.706,32.706,0,0,1,.593-6.99,32.7,32.7,0,0,1,2.072-6.7,32.088,32.088,0,0,1,6.617-9.65,26.416,26.416,0,0,1,8.453-5.7,21.531,21.531,0,0,1,8-1.838V-204.3a24.842,24.842,0,0,1-8-1.562A24.542,24.542,0,0,1-344.731-211a28.774,28.774,0,0,1-6.617-9.281c-.24-.566-.468-1.143-.676-1.716h111.3V-46.171A7.665,7.665,0,0,1-248.376-38.515Z" transform="translate(421 222)" fill="#595959"/>
    <g id="noun_Badge_3722759" transform="translate(61.232 66.232)">
      <path id="Path_7" data-name="Path 7" d="M45.605,15.83A29.776,29.776,0,1,0,75.391,45.616,29.811,29.811,0,0,0,45.605,15.83ZM64.692,43.157l-8.009,7.82,1.892,11.036a2.141,2.141,0,0,1-.841,2.06,2.093,2.093,0,0,1-2.207.147l-9.922-5.213-9.9,5.213a2.074,2.074,0,0,1-.967.252,2.178,2.178,0,0,1-1.24-.4,2.141,2.141,0,0,1-.841-2.06l1.892-11.036-8.009-7.82a2.087,2.087,0,0,1-.547-2.144,2.063,2.063,0,0,1,1.7-1.429l11.078-1.619,4.961-10.048a2.187,2.187,0,0,1,3.763,0l4.961,10.048,11.078,1.619a2.064,2.064,0,0,1,1.7,1.429A2.087,2.087,0,0,1,64.692,43.157Z" transform="translate(11.946 11.935)" fill="#67cbcf"/>
      <path id="Path_8" data-name="Path 8" d="M106.067,51.287c-1.03-.925-2.417-2.165-2.564-2.88-.147-.8.652-2.459,1.282-3.784,1.093-2.27,2.312-4.835,1.345-7.189-1.009-2.4-3.721-3.363-6.1-4.2-1.387-.483-3.09-1.072-3.531-1.7-.42-.652-.315-2.48-.252-3.952.147-2.522.294-5.36-1.535-7.189-1.808-1.829-4.667-1.661-7.189-1.535-1.471.084-3.3.189-3.931-.252-.652-.42-1.24-2.144-1.724-3.51-.841-2.4-1.787-5.108-4.183-6.1-2.375-.988-4.94.231-7.189,1.324-1.345.631-3.006,1.429-3.8,1.282-.715-.147-1.955-1.535-2.88-2.543C62.113,7.144,60.179,5,57.551,5s-4.54,2.144-6.264,4.057c-.9,1.009-2.144,2.4-2.859,2.543-.8.147-2.459-.652-3.8-1.282-2.249-1.093-4.814-2.312-7.189-1.345-2.4,1.009-3.342,3.721-4.183,6.117-.483,1.366-1.072,3.09-1.724,3.51-.631.42-2.459.336-3.931.252-2.522-.126-5.381-.294-7.189,1.535-1.829,1.808-1.682,4.667-1.535,7.189.063,1.471.168,3.3-.273,3.952-.42.631-2.123,1.219-3.51,1.7-2.375.841-5.087,1.808-6.1,4.2-.967,2.354.252,4.919,1.345,7.168.631,1.345,1.429,3.006,1.261,3.8-.126.715-1.513,1.955-2.543,2.88C7.165,52.99,5,54.924,5,57.551s2.165,4.561,4.057,6.264c1.03.9,2.417,2.144,2.565,2.88.147.778-.652,2.438-1.282,3.784-1.093,2.249-2.312,4.835-1.345,7.189,1.009,2.4,3.721,3.342,6.1,4.183,1.387.483,3.09,1.093,3.51,1.724.441.631.336,2.459.273,3.931-.147,2.522-.294,5.381,1.535,7.189,1.808,1.829,4.667,1.682,7.189,1.535,1.471-.063,3.3-.168,3.931.273.631.42,1.24,2.123,1.724,3.51.841,2.4,1.787,5.108,4.183,6.1,2.354.967,4.94-.252,7.189-1.324,1.345-.652,3.006-1.45,3.784-1.282.736.126,1.976,1.534,2.9,2.543,1.7,1.892,3.616,4.057,6.243,4.057s4.561-2.165,6.264-4.057c.925-1.009,2.165-2.417,2.88-2.543.8-.168,2.459.631,3.8,1.282,2.249,1.072,4.814,2.312,7.168,1.324,2.417-.988,3.363-3.7,4.2-6.1.483-1.387,1.072-3.09,1.724-3.51.631-.441,2.459-.336,3.931-.252,2.522.126,5.381.273,7.189-1.534,1.829-1.829,1.661-4.688,1.535-7.21-.084-1.45-.168-3.279.252-3.931.441-.631,2.144-1.24,3.531-1.724,2.375-.841,5.087-1.787,6.1-4.183.967-2.354-.252-4.919-1.345-7.189-.631-1.345-1.429-3.006-1.282-3.784.147-.736,1.534-1.976,2.564-2.88,1.892-1.7,4.036-3.637,4.036-6.264S107.959,52.99,106.067,51.287ZM57.551,91.521a33.98,33.98,0,1,1,33.99-33.969A34.01,34.01,0,0,1,57.551,91.521Z" fill="#67cbcf"/>
    </g>
  </g>
</svg>
