<svg xmlns="http://www.w3.org/2000/svg" xmlns:xlink="http://www.w3.org/1999/xlink" width="200" height="200" viewBox="0 0 200 200">
  <defs>
    <clipPath id="clip-Section-1">
      <rect width="200" height="200"/>
    </clipPath>
  </defs>
  <g id="Section-1" clip-path="url(#clip-Section-1)">
    <rect width="200" height="200" fill="rgba(18,18,18,0)"/>
    <rect id="Rectangle_1" data-name="Rectangle 1" width="200" height="200" rx="11" fill="#1c484a"/>
    <g id="Group_2" data-name="Group 2" transform="translate(3)">
      <path id="Path_16" data-name="Path 16" d="M83.029,50H34.971A.972.972,0,0,1,34,49.029V.971A.971.971,0,0,1,34.971,0H83.029A.971.971,0,0,1,84,.971V49.029A.971.971,0,0,1,83.029,50ZM62.641,39v1.632H66.02a4.248,4.248,0,0,0,1.471-.243,3.242,3.242,0,0,0,1.151-.726,3.046,3.046,0,0,0,.743-1.2,5.077,5.077,0,0,0,.248-1.658V34.524a4.14,4.14,0,0,1,.338-1.736,4.083,4.083,0,0,1,.839-1.224,3.365,3.365,0,0,1,1.072-.722,2.742,2.742,0,0,1,1.014-.233V28.977a3.251,3.251,0,0,1-2.086-.851,3.67,3.67,0,0,1-.839-1.177,4.25,4.25,0,0,1-.338-1.795V22.778a4.284,4.284,0,0,0-.267-1.538,3.717,3.717,0,0,0-.746-1.212,3.433,3.433,0,0,0-1.143-.8,3.606,3.606,0,0,0-1.456-.291h-3.38v1.632H65.2a2.522,2.522,0,0,1,2.039.7,3.239,3.239,0,0,1,.571,2.074V25.6a3.982,3.982,0,0,0,.35,1.7A4.52,4.52,0,0,0,69,28.546a4.6,4.6,0,0,0,1,.792,2.579,2.579,0,0,0,.839.338v.14a2.449,2.449,0,0,0-.816.361,4.589,4.589,0,0,0-1,.862,5.588,5.588,0,0,0-.85,1.293,3.762,3.762,0,0,0-.361,1.655v2.237a3.085,3.085,0,0,1-.607,2.1A2.625,2.625,0,0,1,65.181,39ZM51.98,18.932a3.6,3.6,0,0,0-1.456.291,3.434,3.434,0,0,0-1.142.8,3.716,3.716,0,0,0-.746,1.212,4.286,4.286,0,0,0-.267,1.538v2.377a4.252,4.252,0,0,1-.338,1.795,3.673,3.673,0,0,1-.839,1.177,3.252,3.252,0,0,1-2.086.851v1.632a2.745,2.745,0,0,1,1.014.233,3.366,3.366,0,0,1,1.072.722,4.082,4.082,0,0,1,.839,1.224,4.142,4.142,0,0,1,.338,1.736v2.284a5.079,5.079,0,0,0,.248,1.658,3.047,3.047,0,0,0,.743,1.2,3.24,3.24,0,0,0,1.151.725,4.246,4.246,0,0,0,1.471.243h3.378V39H52.819a2.623,2.623,0,0,1-2.028-.676,3.092,3.092,0,0,1-.607-2.1V33.989a3.762,3.762,0,0,0-.361-1.655,5.6,5.6,0,0,0-.849-1.293,4.586,4.586,0,0,0-1-.862,2.445,2.445,0,0,0-.816-.361v-.14a2.579,2.579,0,0,0,.839-.338,4.6,4.6,0,0,0,1-.792,4.513,4.513,0,0,0,.839-1.247,3.981,3.981,0,0,0,.35-1.7V23.337a3.235,3.235,0,0,1,.571-2.074,2.524,2.524,0,0,1,2.039-.7h2.564V18.932ZM36.427,2.427v7.767H81.573V2.427Z" transform="translate(-2 75)" fill="#36b1b5"/>
      <path id="Path_17" data-name="Path 17" d="M102.01,24.85l-2.99-.244.005-.064.008-.064Zm.057-.29,2.873.862-.007.026-.008.025Zm.05-.148,2.779,1.129-.015.037-.016.037Zm.059-.124,2.694,1.32-.026.052-.028.051Zm.087-.151,2.6,1.5-.06.1-.068.1Zm.028-.052-2.558-1.567.066-.108.075-.1Zm.049-.055,2.35,1.864-.043.054L104.6,26Zm.109-.126,2.172,2.07-.014.015-.015.015Zm.116-.107L100.6,21.526l.059-.05.061-.047Zm.059-.053,1.79,2.407-.062.047-.066.043ZM122.044,9.3l1.824,2.382-.017.012-.016.012Zm.024-.014L120.124,7l.1-.084.106-.075Zm.139-.084-1.5-2.6.028-.017.03-.016Zm.124-.068,1.246,2.729-.021.01-.022.01Zm.121-.042-1.009-2.825.012,0Zm.166-.053.653,2.928-.012,0Zm.1-.013.472,2.963-.025,0-.026,0Zm.2-.021-.048-3h.048Zm.019,32,.022-3-.022,6Zm-.411-.065-.843,2.879-.062-.018-.061-.021Zm-.088-.028-.966,2.84-.026-.009-.026-.009Zm-.376-.195,1.687-2.48.046.031.044.033Zm-.019-.009-1.687,2.48-.052-.036-.051-.038ZM102.622,26.257l-1.791,2.407-.007-.005Zm-.041-.036,1.835-2.373.072.056.069.06Zm-.1-.088,2.044-2.2.014.013.014.013Zm-.154-.169,2.334-1.884.025.031.025.032Zm-.043-.047,2.4-1.8.024.033.024.033Zm-.03-.055,2.5-1.653.106.16.085.173Zm-.086-.148,2.682-1.346,0,0Zm-.058-.127,2.748-1.2.016.037.015.037Zm-.05-.148,2.858-.913.008.026.007.026Zm-.037-.145,2.937-.612,0,.012Zm-.02-.146-2.978.365-.007-.06,0-.06Zm-2.975-.671v-.006c0-.01,0-.037.008-.067.008-.061.023-.175.052-.313l5.873,1.224c.01-.046.016-.084.021-.112l.008-.054c0-.006,0-.009,0,.006s0,.037-.008.067Zm.06-.386a4.389,4.389,0,0,1,.116-.445l5.716,1.826a1.5,1.5,0,0,0,.042-.157Zm.1-.394.01-.032c.006-.02.016-.054.029-.095a3.748,3.748,0,0,1,.136-.363l5.5,2.406a2.11,2.11,0,0,0,.082-.216c.005-.016.008-.026.006-.02a.046.046,0,0,1,0,.014c0,.007,0,.018-.009.03Zm.144-.415a4.242,4.242,0,0,1,.2-.418l5.281,2.846a1.605,1.605,0,0,0,.08-.17Zm.144-.315a4.187,4.187,0,0,1,.31-.532l4.943,3.4a1.89,1.89,0,0,0,.136-.229Zm.182-.329c-.019.032-.032.058-.039.07l-.006.011h0l0-.005.034-.064c.018-.032.043-.078.076-.131l5.117,3.133.036-.061.025-.045c.007-.012.012-.021.015-.028l.006-.01h0l0,.006-.013.024c0,.011-.013.024-.022.04l-.031.056Zm.21-.33a3.218,3.218,0,0,1,.252-.3l.018-.02s0,0,0,0-.032.035-.064.071L104.6,26c-.04.046-.073.082-.089.1l-.015.016.007-.007a2.848,2.848,0,0,0,.2-.246Zm.116-.143a4.432,4.432,0,0,1,.317-.362l4.285,4.2a1.378,1.378,0,0,0,.1-.109Zm.288-.332c.153-.161.3-.288.326-.307l3.922,4.541-.016.014.012-.01c.015-.014.052-.048.1-.1Zm.446-.4a2.856,2.856,0,0,0-.224.193l-.04.04,0,0,.009-.009c.015-.015.073-.075.152-.144a3.124,3.124,0,0,1,.344-.265l3.324,4.995A2.867,2.867,0,0,0,104.6,26c.036-.032.065-.059.085-.079l.039-.038,0,0-.01.01-.054.054c-.051.049-.138.129-.253.219Zm.109-.092L120.254,6.891l3.581,4.814L104.414,26.151ZM120.221,6.916a3.016,3.016,0,0,1,.295-.2l.082-.047.021-.012.006,0h0l-.029.016c-.019.01-.052.029-.092.054s-.1.059-.159.1-.14.1-.223.172l3.887,4.571c-.085.072-.163.13-.228.176s-.121.081-.164.107-.077.045-.1.057l-.026.014-.009.005.023-.013.075-.043a2.985,2.985,0,0,0,.283-.191Zm.107-.076c.125-.09.235-.155.294-.189l.069-.04.017-.009,3,5.2-.055.031c-.011.006-.007,0,0,0l.053-.032c.025-.016.062-.04.1-.071Zm.438-.271-.04.022.012-.007.033-.019a3.8,3.8,0,0,1,.358-.182l2.4,5.5c.071-.031.127-.059.164-.079l.068-.038h0l-.019.011-.1.057Zm.319-.166a3.633,3.633,0,0,1,.378-.146l.033-.01.007,0-.06.02,2.018,5.65c-.054.019-.1.034-.121.041l-.023.007h0c.008,0,.039-.013.08-.028s.1-.04.178-.074Zm.37-.143,0,0,.009,0,.013,0,.094-.033a3.808,3.808,0,0,1,.4-.112l1.282,5.861a2.289,2.289,0,0,0,.234-.064l.013,0-.056.02Zm.509-.151a3.41,3.41,0,0,1,.385-.063l.026,0h0l-.075.009.842,5.941c-.057.008-.1.013-.129.016l-.027,0c-.006,0,0,0,0,0l.087-.011c.047-.007.116-.018.2-.037Zm.284-.048A4.361,4.361,0,0,1,122.87,6l.1,6c.09,0,.158-.008.19-.012l.036,0Zm.67-.058c-.063,0-.121,0-.174.005s-.1.007-.138.011l-.09.011-.025,0-.01,0h0l.021,0,.036,0,.051-.006a3.049,3.049,0,0,1,.346-.02v6a2.976,2.976,0,0,0,.336-.019l.049-.006.033,0,.018,0h0l-.013,0-.027,0-.1.012c-.04,0-.088.009-.143.012s-.115.005-.18.005Zm.021,0H163.77v6H122.939ZM163.77,6A6.268,6.268,0,0,1,170,12.3h-6a.318.318,0,0,0-.09-.229.191.191,0,0,0-.14-.067ZM170,12.3V37.7h-6V12.3ZM170,37.7a6.267,6.267,0,0,1-6.23,6.3V38a.19.19,0,0,0,.14-.066A.322.322,0,0,0,164,37.7ZM163.77,44H122.939V38H163.77Zm-40.831,0h0V38h0Zm-.023,0a4.481,4.481,0,0,1-1.233-.186l1.686-5.758a1.524,1.524,0,0,0-.41-.056Zm-1.356-.225.043.014h0l-.042-.013-.091-.03,1.932-5.68-.048-.016c-.006,0-.01,0,0,0l.047.014.088.029Zm-.14-.046a4.483,4.483,0,0,1-1.136-.6l3.555-4.833a1.551,1.551,0,0,0-.383-.211Zm-1.046-.536c.072.049.14.09.2.126s.118.064.163.086.082.039.105.049l.026.011.007,0h0l-.008,0-.029-.013c-.024-.011-.063-.028-.109-.051s-.1-.052-.168-.089-.133-.079-.206-.129l3.375-4.961c-.072-.049-.14-.09-.2-.126s-.118-.064-.163-.086-.082-.038-.1-.049l-.026-.012-.007,0h0l.008,0,.029.013c.024.011.063.028.109.051s.1.052.167.089.134.079.207.129Zm-.121-.083L100.831,28.664l3.581-4.814L123.834,38.3ZM100.824,28.659a3.25,3.25,0,0,1-.278-.234l-.016-.015.005,0,.071.065,3.951-4.516c.042.037.075.068.091.083l.015.014-.006-.006a2.957,2.957,0,0,0-.237-.2Zm-.078-.065c-.136-.106-.238-.2-.285-.246l-.05-.049c-.01-.01-.005,0,0,0l4.144-4.34.05.049c.01.01,0,0,0,0l-.06-.056c-.03-.027-.073-.063-.128-.105Zm-.3-.266a4.279,4.279,0,0,1-.494-.543l4.768-3.642a1.742,1.742,0,0,0-.186-.206ZM100,27.848c.071.088.133.155.172.194l.039.039,0,0,0,0,0,0a3.259,3.259,0,0,1-.365-.428l4.9-3.466a2.843,2.843,0,0,0-.323-.381h0l.01.009.05.05c.046.047.115.122.193.219Zm-.109-.132a3.2,3.2,0,0,1-.273-.433c-.024-.046-.042-.083-.05-.1l0-.01v0h0l.005.011,5.388-2.64.012.025c0-.006-.016-.034-.036-.071a2.806,2.806,0,0,0-.239-.379Zm-.133-.2a4.412,4.412,0,0,1-.265-.46l5.367-2.683a1.753,1.753,0,0,0-.1-.164Zm-.263-.455c-.035-.07-.1-.194-.157-.344l5.559-2.258c-.014-.035-.026-.061-.032-.074s-.01-.02-.007-.015Zm-.126-.27a3.748,3.748,0,0,1-.136-.363c-.013-.041-.023-.075-.029-.095l-.009-.032,5.747-1.724c0,.012.007.023.009.03a.14.14,0,0,1,0,.014c0,.005,0,0-.006-.02-.011-.033-.037-.114-.082-.216Zm-.159-.438a4.356,4.356,0,0,1-.118-.458l5.879-1.2a1.714,1.714,0,0,0-.045-.168Zm-.116-.446c-.028-.135-.043-.247-.051-.31,0-.031-.007-.059-.008-.07v-.013l5.956-.729.007.061c0,.013,0,.009,0,0s-.01-.079-.028-.165Zm-.073-.514c0-.029-.018-.2-.018-.393h6c0-.055,0-.095,0-.109s0-.011,0-.008a.155.155,0,0,1,0,.022ZM99,25c0-.142.009-.259.013-.319,0-.03.005-.058.006-.068s0-.012,0-.007l5.98.488c0,.03,0,.058-.006.067s0,.012,0,.007,0-.027,0-.054,0-.067,0-.115Z" transform="translate(-2 75)" fill="#36b1b5"/>
    </g>
    <g id="noun_Arrow_1389950" transform="translate(43.907 60.972) rotate(-90)">
      <path id="Path_18" data-name="Path 18" d="M0,7.681v15.7H18.151v7.681L34.879,15.534,18.151,0V7.681Z" fill="#fff"/>
    </g>
    <g id="noun_Arrow_1389950-2" data-name="noun_Arrow_1389950" transform="translate(43.907 171.907) rotate(-90)">
      <path id="Path_18-2" data-name="Path 18" d="M0,7.681v15.7H18.151v7.681L34.879,15.534,18.151,0V7.681Z" fill="#fff"/>
    </g>
  </g>
</svg>
